<?xml version="1.0" encoding="utf-8"?><svg xmlns="http://www.w3.org/2000/svg" viewBox="0 0 24.94 24.94"><defs><style>.cls-1{fill:#3e7dcc;}</style></defs><title>Pop_Up_Cross</title><g id="Layer_2" data-name="Layer 2"><g id="Layer_1-2" data-name="Layer 1"><g id="Layer_1-2-2" data-name="Layer 1-2"><path class="cls-1" d="M13.89,12.47,24.64,1.72a1,1,0,0,0,0-1.42,1,1,0,0,0-1.42,0h0L12.47,11,1.72.3A1,1,0,0,0,.3.3a1,1,0,0,0,0,1.42L11,12.47.3,23.22a1,1,0,0,0,0,1.42,1,1,0,0,0,1.42,0L12.47,13.89,23.22,24.64a1,1,0,0,0,1.42-1.42Z"/></g></g></g></svg>